<?xml version="1.0" encoding="UTF-8"?><svg id="Layer_1" xmlns="http://www.w3.org/2000/svg" viewBox="0 0 400 280"><defs><style>.cls-1{fill:#39b07d;}</style></defs><path class="cls-1" d="M182.56,29.8h-14.17c-.64,0-1.24.31-1.6.83L21.24,239.48c-3.15,4.52.08,10.72,5.59,10.72h83.83c2.98,0,5.61-1.93,6.5-4.77L184.42,32.34c.4-1.26-.54-2.54-1.86-2.54Z"/><path class="cls-1" d="M378.76,239.48L233.21,30.64c-.37-.52-.96-.83-1.6-.83h-14.17c-1.32,0-2.26,1.28-1.86,2.54l67.26,213.09c.9,2.84,3.53,4.77,6.5,4.77h83.83c5.51,0,8.74-6.2,5.59-10.72Z"/></svg>