<?xml version="1.0" encoding="UTF-8"?>
<svg xmlns="http://www.w3.org/2000/svg" xmlns:xlink="http://www.w3.org/1999/xlink" width="128px" height="64px" viewBox="0 0 128 64" version="1.1">
<g id="surface1">
<path style=" stroke:none;fill-rule:nonzero;fill:rgb(13.725491%,18.431373%,36.470589%);fill-opacity:1;" d="M 44.175781 38.214844 L 44.175781 36.316406 L 44.78125 36.316406 C 44.933594 36.316406 45.058594 36.339844 45.15625 36.390625 C 45.257812 36.445312 45.324219 36.507812 45.375 36.59375 C 45.421875 36.679688 45.441406 36.773438 45.441406 36.886719 C 45.441406 36.996094 45.421875 37.089844 45.375 37.175781 C 45.324219 37.261719 45.253906 37.328125 45.160156 37.378906 C 45.0625 37.429688 44.9375 37.457031 44.785156 37.457031 L 44.402344 37.457031 L 44.402344 38.214844 Z M 44.402344 37.261719 L 44.78125 37.261719 C 44.9375 37.261719 45.046875 37.226562 45.113281 37.15625 C 45.179688 37.089844 45.210938 36.996094 45.210938 36.882812 C 45.210938 36.769531 45.179688 36.671875 45.113281 36.605469 C 45.046875 36.535156 44.9375 36.503906 44.78125 36.503906 L 44.402344 36.503906 Z M 44.402344 37.261719 "/>
<path style=" stroke:none;fill-rule:nonzero;fill:rgb(13.725491%,18.431373%,36.470589%);fill-opacity:1;" d="M 46.183594 38.214844 L 46.183594 36.316406 L 47.355469 36.316406 L 47.355469 36.503906 L 46.414062 36.503906 L 46.414062 37.164062 L 47.277344 37.164062 L 47.277344 37.347656 L 46.414062 37.347656 L 46.414062 38.027344 L 47.355469 38.027344 L 47.355469 38.214844 Z M 46.183594 38.214844 "/>
<path style=" stroke:none;fill-rule:nonzero;fill:rgb(13.725491%,18.431373%,36.470589%);fill-opacity:1;" d="M 48.15625 38.214844 L 48.15625 36.316406 L 48.382812 36.316406 L 49.394531 37.839844 L 49.394531 36.316406 L 49.621094 36.316406 L 49.621094 38.214844 L 49.394531 38.214844 L 48.382812 36.691406 L 48.382812 38.214844 Z M 48.15625 38.214844 "/>
<path style=" stroke:none;fill-rule:nonzero;fill:rgb(13.725491%,18.431373%,36.470589%);fill-opacity:1;" d="M 50.910156 38.214844 L 50.910156 36.503906 L 50.34375 36.503906 L 50.34375 36.316406 L 51.703125 36.316406 L 51.703125 36.503906 L 51.136719 36.503906 L 51.136719 38.214844 Z M 50.910156 38.214844 "/>
<path style=" stroke:none;fill-rule:nonzero;fill:rgb(13.725491%,18.431373%,36.470589%);fill-opacity:1;" d="M 52.425781 38.214844 L 52.425781 36.316406 L 53.039062 36.316406 C 53.191406 36.316406 53.308594 36.339844 53.402344 36.390625 C 53.5 36.4375 53.566406 36.503906 53.613281 36.585938 C 53.660156 36.671875 53.679688 36.765625 53.679688 36.871094 C 53.679688 36.972656 53.660156 37.0625 53.609375 37.148438 C 53.5625 37.234375 53.492188 37.304688 53.398438 37.351562 C 53.304688 37.402344 53.179688 37.429688 53.03125 37.429688 L 52.65625 37.429688 L 52.65625 38.214844 Z M 52.65625 37.25 L 53.023438 37.25 C 53.167969 37.25 53.273438 37.214844 53.339844 37.144531 C 53.40625 37.074219 53.441406 36.984375 53.441406 36.871094 C 53.441406 36.761719 53.40625 36.671875 53.34375 36.605469 C 53.277344 36.539062 53.167969 36.507812 53.019531 36.507812 L 52.652344 36.507812 L 52.652344 37.25 Z M 53.429688 38.214844 L 53.011719 37.363281 L 53.265625 37.363281 L 53.695312 38.214844 Z M 53.429688 38.214844 "/>
<path style=" stroke:none;fill-rule:nonzero;fill:rgb(13.725491%,18.431373%,36.470589%);fill-opacity:1;" d="M 55.152344 38.246094 C 55.023438 38.246094 54.90625 38.21875 54.796875 38.167969 C 54.691406 38.113281 54.609375 38.03125 54.546875 37.925781 C 54.484375 37.820312 54.453125 37.679688 54.453125 37.511719 L 54.453125 36.316406 L 54.679688 36.316406 L 54.679688 37.515625 C 54.679688 37.636719 54.699219 37.738281 54.738281 37.816406 C 54.78125 37.894531 54.835938 37.953125 54.910156 37.988281 C 54.980469 38.023438 55.066406 38.042969 55.160156 38.042969 C 55.253906 38.042969 55.335938 38.023438 55.410156 37.988281 C 55.480469 37.953125 55.535156 37.894531 55.574219 37.816406 C 55.613281 37.738281 55.636719 37.636719 55.636719 37.515625 L 55.636719 36.316406 L 55.863281 36.316406 L 55.863281 37.511719 C 55.863281 37.679688 55.832031 37.820312 55.769531 37.925781 C 55.703125 38.035156 55.617188 38.113281 55.511719 38.167969 C 55.40625 38.21875 55.289062 38.246094 55.15625 38.246094 Z M 55.152344 38.246094 "/>
<path style=" stroke:none;fill-rule:nonzero;fill:rgb(13.725491%,18.431373%,36.470589%);fill-opacity:1;" d="M 58.652344 38.246094 C 58.476562 38.246094 58.320312 38.203125 58.1875 38.121094 C 58.054688 38.039062 57.953125 37.925781 57.878906 37.777344 C 57.804688 37.628906 57.765625 37.457031 57.765625 37.261719 C 57.765625 37.0625 57.804688 36.898438 57.878906 36.75 C 57.953125 36.605469 58.054688 36.488281 58.1875 36.40625 C 58.320312 36.320312 58.476562 36.28125 58.652344 36.28125 C 58.828125 36.28125 58.984375 36.320312 59.117188 36.40625 C 59.25 36.488281 59.351562 36.605469 59.425781 36.75 C 59.5 36.898438 59.535156 37.070312 59.535156 37.261719 C 59.535156 37.453125 59.5 37.625 59.425781 37.777344 C 59.351562 37.925781 59.25 38.039062 59.117188 38.121094 C 58.984375 38.203125 58.828125 38.246094 58.652344 38.246094 Z M 58.652344 38.042969 C 58.78125 38.042969 58.894531 38.011719 58.996094 37.953125 C 59.09375 37.886719 59.167969 37.800781 59.222656 37.683594 C 59.277344 37.566406 59.304688 37.425781 59.304688 37.261719 C 59.304688 37.101562 59.277344 36.960938 59.222656 36.84375 C 59.167969 36.726562 59.09375 36.636719 58.996094 36.578125 C 58.898438 36.515625 58.785156 36.484375 58.652344 36.484375 C 58.515625 36.484375 58.40625 36.515625 58.308594 36.578125 C 58.214844 36.636719 58.136719 36.726562 58.082031 36.84375 C 58.027344 36.960938 57.996094 37.101562 57.996094 37.261719 C 57.996094 37.425781 58.023438 37.566406 58.082031 37.683594 C 58.132812 37.800781 58.210938 37.886719 58.308594 37.953125 C 58.40625 38.015625 58.523438 38.042969 58.652344 38.042969 Z M 58.652344 38.042969 "/>
<path style=" stroke:none;fill-rule:nonzero;fill:rgb(13.725491%,18.431373%,36.470589%);fill-opacity:1;" d="M 60.050781 38.214844 L 60.75 36.316406 L 60.988281 36.316406 L 61.6875 38.214844 L 61.441406 38.214844 L 60.867188 36.597656 L 60.289062 38.214844 Z M 60.371094 37.722656 L 60.4375 37.539062 L 61.292969 37.539062 L 61.359375 37.722656 Z M 60.371094 37.722656 "/>
<path style=" stroke:none;fill-rule:nonzero;fill:rgb(13.725491%,18.431373%,36.470589%);fill-opacity:1;" d="M 62.410156 38.214844 L 62.410156 36.316406 L 62.675781 36.316406 L 63.324219 37.648438 L 63.96875 36.316406 L 64.238281 36.316406 L 64.238281 38.214844 L 64.011719 38.214844 L 64.011719 36.722656 L 63.410156 37.960938 L 63.238281 37.960938 L 62.636719 36.730469 L 62.636719 38.214844 L 62.40625 38.214844 Z M 62.410156 38.214844 "/>
<path style=" stroke:none;fill-rule:nonzero;fill:rgb(13.725491%,18.431373%,36.470589%);fill-opacity:1;" d="M 65.085938 38.214844 L 65.085938 36.316406 L 66.257812 36.316406 L 66.257812 36.503906 L 65.3125 36.503906 L 65.3125 37.164062 L 66.175781 37.164062 L 66.175781 37.347656 L 65.3125 37.347656 L 65.3125 38.027344 L 66.257812 38.027344 L 66.257812 38.214844 Z M 65.085938 38.214844 "/>
<path style=" stroke:none;fill-rule:nonzero;fill:rgb(13.725491%,18.431373%,36.470589%);fill-opacity:1;" d="M 67.054688 38.214844 L 67.054688 36.316406 L 67.28125 36.316406 L 68.292969 37.839844 L 68.292969 36.316406 L 68.519531 36.316406 L 68.519531 38.214844 L 68.292969 38.214844 L 67.28125 36.691406 L 67.28125 38.214844 Z M 67.054688 38.214844 "/>
<path style=" stroke:none;fill-rule:nonzero;fill:rgb(13.725491%,18.431373%,36.470589%);fill-opacity:1;" d="M 69.367188 38.214844 L 69.367188 36.316406 L 69.59375 36.316406 L 69.59375 38.214844 Z M 69.367188 38.214844 "/>
<path style=" stroke:none;fill-rule:nonzero;fill:rgb(13.725491%,18.431373%,36.470589%);fill-opacity:1;" d="M 72.402344 38.246094 C 72.226562 38.246094 72.070312 38.203125 71.9375 38.121094 C 71.804688 38.039062 71.703125 37.925781 71.632812 37.777344 C 71.5625 37.625 71.527344 37.457031 71.527344 37.261719 C 71.527344 37.0625 71.5625 36.894531 71.632812 36.746094 C 71.703125 36.597656 71.804688 36.484375 71.9375 36.402344 C 72.066406 36.320312 72.222656 36.277344 72.402344 36.277344 C 72.621094 36.277344 72.796875 36.328125 72.929688 36.429688 C 73.0625 36.535156 73.148438 36.679688 73.183594 36.867188 L 72.941406 36.867188 C 72.910156 36.75 72.851562 36.652344 72.761719 36.582031 C 72.675781 36.507812 72.554688 36.476562 72.402344 36.476562 C 72.273438 36.476562 72.160156 36.507812 72.0625 36.566406 C 71.964844 36.628906 71.890625 36.71875 71.835938 36.835938 C 71.785156 36.953125 71.757812 37.09375 71.757812 37.257812 C 71.757812 37.417969 71.785156 37.558594 71.835938 37.675781 C 71.890625 37.792969 71.964844 37.882812 72.0625 37.945312 C 72.164062 38.007812 72.273438 38.039062 72.402344 38.039062 C 72.554688 38.039062 72.675781 38.003906 72.761719 37.933594 C 72.851562 37.863281 72.910156 37.769531 72.941406 37.65625 L 73.183594 37.65625 C 73.148438 37.839844 73.0625 37.980469 72.929688 38.085938 C 72.796875 38.1875 72.621094 38.242188 72.402344 38.242188 Z M 72.402344 38.246094 "/>
<path style=" stroke:none;fill-rule:nonzero;fill:rgb(13.725491%,18.431373%,36.470589%);fill-opacity:1;" d="M 73.789062 38.214844 L 74.488281 36.316406 L 74.730469 36.316406 L 75.425781 38.214844 L 75.183594 38.214844 L 74.609375 36.597656 L 74.027344 38.214844 Z M 74.109375 37.722656 L 74.175781 37.539062 L 75.035156 37.539062 L 75.097656 37.722656 Z M 74.109375 37.722656 "/>
<path style=" stroke:none;fill-rule:nonzero;fill:rgb(13.725491%,18.431373%,36.470589%);fill-opacity:1;" d="M 77.75 38.214844 L 77.75 36.503906 L 77.183594 36.503906 L 77.183594 36.316406 L 78.542969 36.316406 L 78.542969 36.503906 L 77.976562 36.503906 L 77.976562 38.214844 Z M 77.75 38.214844 "/>
<path style=" stroke:none;fill-rule:nonzero;fill:rgb(13.725491%,18.431373%,36.470589%);fill-opacity:1;" d="M 79.265625 38.214844 L 79.265625 36.316406 L 79.492188 36.316406 L 79.492188 38.214844 Z M 79.265625 38.214844 "/>
<path style=" stroke:none;fill-rule:nonzero;fill:rgb(13.725491%,18.431373%,36.470589%);fill-opacity:1;" d="M 80.339844 38.214844 L 80.339844 36.316406 L 80.570312 36.316406 L 81.578125 37.839844 L 81.578125 36.316406 L 81.804688 36.316406 L 81.804688 38.214844 L 81.578125 38.214844 L 80.570312 36.691406 L 80.570312 38.214844 Z M 80.339844 38.214844 "/>
<path style=" stroke:none;fill-rule:nonzero;fill:rgb(13.725491%,18.431373%,36.470589%);fill-opacity:1;" d="M 82.652344 38.214844 L 82.652344 36.316406 L 83.824219 36.316406 L 83.824219 36.503906 L 82.882812 36.503906 L 82.882812 37.164062 L 83.746094 37.164062 L 83.746094 37.347656 L 82.882812 37.347656 L 82.882812 38.027344 L 83.824219 38.027344 L 83.824219 38.214844 Z M 82.652344 38.214844 "/>
<path style=" stroke:none;fill-rule:nonzero;fill:rgb(13.725491%,18.431373%,36.470589%);fill-opacity:1;" d="M 38.050781 25.886719 C 40.851562 25.886719 42.457031 27.246094 42.457031 29.722656 C 42.457031 32.195312 40.851562 33.554688 38.050781 33.554688 L 34.324219 33.554688 C 34.207031 33.554688 34.117188 33.464844 34.117188 33.347656 L 34.117188 26.097656 C 34.117188 25.984375 34.207031 25.890625 34.324219 25.890625 L 38.050781 25.890625 Z M 36.300781 26.972656 L 36.300781 32.46875 C 36.300781 32.585938 36.394531 32.675781 36.507812 32.675781 L 38.050781 32.675781 C 39.386719 32.675781 40.082031 32.164062 40.082031 30.71875 L 40.082031 28.679688 C 40.082031 27.277344 39.386719 26.765625 38.050781 26.765625 L 36.507812 26.765625 C 36.394531 26.765625 36.300781 26.855469 36.300781 26.972656 Z M 36.300781 26.972656 "/>
<path style=" stroke:none;fill-rule:nonzero;fill:rgb(13.725491%,18.431373%,36.470589%);fill-opacity:1;" d="M 60.332031 26.632812 C 61.296875 26.632812 62.167969 26.910156 62.820312 27.546875 C 62.859375 27.585938 62.910156 27.609375 62.964844 27.609375 L 62.976562 27.609375 C 63.039062 27.609375 63.097656 27.578125 63.136719 27.53125 L 63.511719 27.058594 C 63.582031 26.96875 63.570312 26.84375 63.484375 26.769531 C 62.707031 26.105469 61.511719 25.757812 60.332031 25.757812 C 57.761719 25.757812 55.609375 27.171875 55.609375 29.710938 C 55.609375 32.25 57.761719 33.6875 60.332031 33.6875 C 61.515625 33.6875 62.621094 33.339844 63.472656 32.667969 C 63.5625 32.597656 63.574219 32.464844 63.503906 32.375 L 63.183594 31.976562 C 63.140625 31.929688 63.082031 31.902344 63.019531 31.902344 L 63.003906 31.902344 C 62.953125 31.902344 62.902344 31.921875 62.863281 31.953125 C 62.1875 32.550781 61.234375 32.808594 60.332031 32.808594 C 58.988281 32.808594 58.011719 32.214844 58.011719 30.75 L 58.011719 28.691406 C 58.011719 27.222656 58.988281 26.632812 60.332031 26.632812 Z M 60.332031 26.632812 "/>
<path style=" stroke:none;fill-rule:nonzero;fill:rgb(13.725491%,18.431373%,36.470589%);fill-opacity:1;" d="M 70.054688 26 C 70.019531 25.929688 69.945312 25.886719 69.871094 25.886719 L 68.8125 25.886719 C 68.730469 25.886719 68.660156 25.929688 68.625 26 L 64.882812 33.25 C 64.808594 33.386719 64.910156 33.554688 65.066406 33.554688 L 65.625 33.554688 C 65.703125 33.554688 65.773438 33.511719 65.8125 33.441406 L 66.40625 32.289062 C 66.441406 32.21875 66.515625 32.175781 66.589844 32.175781 L 70.667969 32.175781 C 70.746094 32.175781 70.816406 32.21875 70.851562 32.289062 L 71.449219 33.441406 C 71.484375 33.511719 71.554688 33.554688 71.632812 33.554688 L 73.613281 33.554688 C 73.769531 33.554688 73.871094 33.390625 73.796875 33.25 Z M 70.003906 31.296875 L 67.253906 31.296875 C 67.101562 31.296875 67 31.132812 67.070312 30.992188 L 68.445312 28.328125 C 68.523438 28.175781 68.738281 28.175781 68.816406 28.328125 L 70.191406 30.992188 C 70.261719 31.132812 70.160156 31.296875 70.003906 31.296875 Z M 70.003906 31.296875 "/>
<path style=" stroke:none;fill-rule:nonzero;fill:rgb(13.725491%,18.431373%,36.470589%);fill-opacity:1;" d="M 82.402344 30.382812 C 82.328125 30.269531 82.386719 30.113281 82.515625 30.074219 C 83.609375 29.726562 84.101562 29.027344 84.101562 27.988281 C 84.101562 26.46875 83.007812 25.886719 80.4375 25.886719 L 76.121094 25.886719 C 76.003906 25.886719 75.914062 25.980469 75.914062 26.097656 L 75.914062 33.34375 C 75.914062 33.460938 76.003906 33.554688 76.121094 33.554688 L 77.890625 33.554688 C 78.003906 33.554688 78.097656 33.460938 78.097656 33.34375 L 78.097656 30.542969 C 78.097656 30.425781 78.1875 30.332031 78.304688 30.332031 L 79.765625 30.332031 C 79.839844 30.332031 79.910156 30.375 79.945312 30.441406 L 81.585938 33.445312 C 81.625 33.511719 81.695312 33.554688 81.769531 33.554688 L 84.015625 33.554688 C 84.179688 33.554688 84.277344 33.371094 84.191406 33.234375 L 82.398438 30.382812 Z M 81.714844 28.332031 C 81.714844 29.097656 81.226562 29.460938 80.4375 29.460938 L 78.304688 29.460938 C 78.1875 29.460938 78.097656 29.367188 78.097656 29.253906 L 78.097656 26.972656 C 78.097656 26.859375 78.1875 26.765625 78.304688 26.765625 L 80.4375 26.765625 C 81.222656 26.765625 81.714844 27.085938 81.714844 27.851562 Z M 81.714844 28.332031 "/>
<path style=" stroke:none;fill-rule:nonzero;fill:rgb(13.725491%,18.431373%,36.470589%);fill-opacity:1;" d="M 88.242188 27.476562 C 88.242188 26.972656 88.734375 26.632812 90.101562 26.632812 C 91.160156 26.632812 92.085938 26.898438 92.660156 27.351562 C 92.695312 27.378906 92.742188 27.394531 92.789062 27.394531 C 92.867188 27.394531 92.9375 27.351562 92.972656 27.285156 L 93.28125 26.710938 C 93.335938 26.609375 93.296875 26.488281 93.199219 26.429688 C 92.394531 25.960938 91.234375 25.75 90.105469 25.75 C 87.558594 25.75 86.234375 26.738281 86.222656 28.117188 C 86.210938 30.941406 91.667969 29.980469 91.667969 31.773438 C 91.667969 32.453125 90.96875 32.816406 89.679688 32.816406 C 88.316406 32.816406 87.234375 32.371094 86.574219 31.84375 C 86.539062 31.8125 86.496094 31.796875 86.445312 31.796875 L 86.425781 31.796875 C 86.355469 31.796875 86.289062 31.832031 86.25 31.894531 L 85.886719 32.46875 C 85.824219 32.566406 85.855469 32.695312 85.953125 32.757812 C 86.871094 33.335938 88.195312 33.695312 89.679688 33.695312 C 92.03125 33.695312 93.890625 32.9375 93.890625 31.164062 C 93.890625 28.183594 88.246094 28.972656 88.246094 27.472656 Z M 88.242188 27.476562 "/>
<path style=" stroke:none;fill-rule:nonzero;fill:rgb(21.960784%,69.01961%,49.019608%);fill-opacity:1;" d="M 48.414062 25.753906 L 47.914062 25.753906 C 47.894531 25.753906 47.871094 25.765625 47.859375 25.785156 L 42.71875 33.175781 C 42.609375 33.335938 42.71875 33.554688 42.917969 33.554688 L 45.878906 33.554688 C 45.984375 33.554688 46.078125 33.484375 46.109375 33.382812 L 48.484375 25.84375 C 48.496094 25.796875 48.464844 25.753906 48.417969 25.753906 Z M 48.414062 25.753906 "/>
<path style=" stroke:none;fill-rule:nonzero;fill:rgb(21.960784%,69.01961%,49.019608%);fill-opacity:1;" d="M 55.347656 33.175781 L 50.207031 25.785156 C 50.191406 25.769531 50.171875 25.757812 50.148438 25.757812 L 49.648438 25.757812 C 49.601562 25.757812 49.570312 25.800781 49.582031 25.847656 L 51.957031 33.386719 C 51.992188 33.488281 52.082031 33.558594 52.1875 33.558594 L 55.148438 33.558594 C 55.34375 33.558594 55.460938 33.339844 55.347656 33.179688 Z M 55.347656 33.175781 "/>
</g>
</svg>
