<svg width="1200px" height="750px" viewBox="0 0 1200 750" xmlns="http://www.w3.org/2000/svg">
  <g stroke="none" fill="none" fill-rule="evenodd">
    <path d="M764.176265,192.064181 L739.301221,190 L712.73509,190 L676.801752,190 L643.058502,191.032091 L603.258772,193.801252 L567.785099,197.216488 L537.060663,201.432582 L518.252671,205.405536 L512.255976,206.681393 L502.095012,210.571002 L488.445712,217.679707 L475.275721,225.736532 L464.414954,232.71928 L454.170441,240.695894 L435.690993,255.001034 L427.360573,263.00522 L418.364272,270.887836 L408.224038,281.018242 L407.347086,275.761911 L406.136565,270.887836 L402.624986,268.459572 L397.016511,268.459572 L390.73713,269.761748 L383.048719,272.017684 L377.028153,273.797367 L375.526151,275.761911 L371.753246,286.515206 L370.441586,292.562367 L370.441586,295.328395 L371.753246,297.336178 L375.526151,299.952437 L377.028153,301.02338 L367.44261,302.479086 L354.14698,304.55204 L332.701851,308.566979 L313.010624,312.917802 L294.702044,317.746759 L276.306145,324.914368 L260.94503,332.407209 L251.257721,337.110836 C247.370066,339.197159 245.195065,340.292122 244.732717,340.395729 C244.27037,340.499335 242.694871,341.091936 240.00622,342.173532 L228.307448,347.449289 L218.328659,354.124352 L212.881629,357.49635 L209.885165,363.918875 L205.134169,366.392884 L198.681407,370.333251 L193.377604,376.906172 L189.848436,388.00099 L187.686208,397.326778 L187.686208,402.973511 L187.686208,407.762363 L184.543376,414.105929 L179.779188,425.129936 L177.558538,429.144248 L177.558538,431.420863 L178.761521,436.491079 L179.779188,444.254633 L178.761521,450.334379 L177.558538,456.31449 L176,464.432727 L176,482.938921 L177.558538,490.187995 L178.761521,498.033639 L181.27365,508.023048 L183.464775,515.587326 L184.543376,517.460381 L187.686208,518.580828 L193.377604,520.222022 L197.612857,520.222022 L201.231856,528.115291 L206.356625,536.96608 L211.680531,543.567199 L219.847621,551.464854 L229.211413,557.305848 L238.028051,560.642754 L246.867305,562.544633 L256.597959,564.022271 L271.261156,565.194731 L284.921763,565.194731 L295.766197,562.544633 L307.897163,557.305848 L317.110817,550.350673 L324.301701,543.567199 L331.73067,533.708132 L375.526151,536.13013 L439.538654,538.884878 L505.164345,540.38257 L540.456655,540.38257 L552.840781,540.38257 L557.721185,550.350673 L564.324253,562.544633 L570.380734,569.242256 L577.399218,575.613395 L584.64287,580.775729 L595.123582,584.939811 L607.93425,587.272824 L624.853904,590 L641.521653,590 L655.815475,587.272824 L667.75233,579.843902 L678.532175,570.513727 L689.580656,556.114589 L695.525212,545.535502 L701.185827,531.682803 L703.237494,523.93617 L728.836214,518.580828 L799.115533,506.426347 L849.662795,496.242049 L878.021148,490.187995 L885.350234,488.798087 L887.388081,496.242049 L890.85443,504.247488 L895.001109,511.708997 L899.59066,517.460381 L904.02505,521.23218 L909.728382,523.003716 L940.457523,523.93617 L945.668355,523.93617 L949.94444,521.23218 L956.423585,517.460381 L961.558406,510.319089 L965.273518,502.706559 L969.746856,491.044624 L972.573708,477.808547 L974.405508,464.432727 L974.405508,456.31449 L978.811629,449.039097 L983.173776,439.220763 L986,429.144248 L986,425.129936 L984.773146,417.444714 L984.773146,411.942737 L984.773146,397.326778 L983.173776,374.435295 L983.173776,359.898295 L979.801026,349.126201 L977.717322,342.173532 L975.793807,335.813672 L974.405508,329.069677 L971.067309,320.881883 L966.417452,310.584162 L965.273518,305.795311 L964.417296,304.55204 L960.135556,301.02338 L954.298421,296.223877 L947.1201,286.515206 L914.407765,235.308593 L912.777614,231.611365 L910.989158,225.736532 L908.085666,223.949956 L896.446573,217.679707 L881.027664,212.032974 L864.947271,206.681393 L846.894991,202.408901 L832.988135,199.612167 L819.091956,197.216488 L800.836143,196.117346 L778.972638,193.801252 L764.176265,192.064181 Z" id="Path" fill="#336E7D" opacity="0.1" transform="translate(581.000000, 390.000000) scale(-1, 1) translate(-581.000000, -390.000000) "></path>
    <path d="M637.47719,373.278693 C636.539861,373.278693 635.70227,373.899457 635.440825,374.788321 C635.282989,375.325483 635.346898,375.890513 635.620931,376.380589 C635.896901,376.871627 636.349104,377.227172 636.897169,377.379961 C637.084054,377.431851 637.277717,377.458757 637.474285,377.458757 C638.416455,377.458757 639.255015,376.836072 639.514523,375.945286 C639.67139,375.419655 639.60264,374.834446 639.325702,374.348213 C639.058447,373.870629 638.593656,373.507395 638.053337,373.35749 C637.865484,373.304638 637.671821,373.278693 637.47719,373.278693 Z M637.484936,380.190694 C637.02886,380.190694 636.569879,380.126311 636.12155,379.999468 C634.854994,379.645844 633.805342,378.82905 633.164317,377.700913 C632.53104,376.577581 632.379983,375.278397 632.740196,374.044558 C633.341519,371.986237 635.289768,370.54964 637.478158,370.54964 C637.935203,370.54964 638.391279,370.613061 638.835735,370.737022 C640.1081,371.096411 641.15969,371.920893 641.795872,373.061522 C642.420435,374.18005 642.567619,375.469623 642.209342,376.691932 C641.849129,377.930576 641.019284,378.954932 639.8728,379.578579 C639.124293,379.985054 638.32156,380.190694 637.484936,380.190694 Z M617.741005,385.979362 C617.741005,381.710892 616.418288,377.632687 613.916164,374.184854 L613.247058,373.262357 L585.077824,401.545537 L585.978356,402.204738 C589.41684,404.720464 593.483761,406.050397 597.739503,406.050397 C608.768604,406.050397 617.741005,397.045482 617.741005,385.979362 Z M609.337005,369.633869 C605.934348,367.195018 601.924558,365.906405 597.739503,365.906405 C586.71137,365.906405 577.738969,374.911321 577.738969,385.979362 C577.738969,390.174801 579.021017,394.195351 581.445676,397.606667 L582.112845,398.5455 L610.253998,370.290187 L609.337005,369.633869 Z M597.74144,409.993111 C584.233453,409.993111 573.244053,399.220076 573.244053,385.978401 C573.244053,372.736726 584.233453,361.963691 597.74144,361.963691 C611.247489,361.963691 622.235921,372.736726 622.235921,385.978401 C622.235921,399.220076 611.247489,409.993111 597.74144,409.993111 Z M544.93054,355.482189 L560.069167,355.482189 L560.069167,349.570521 L544.93054,349.570521 L544.93054,355.482189 Z M545.203604,359.648801 C542.088537,359.648801 539.555426,362.139543 539.555426,365.203001 L539.555426,411.792941 C539.555426,414.854478 542.088537,417.344258 545.203604,417.344258 L650.27637,417.344258 C653.392406,417.344258 655.926484,414.854478 655.926484,411.792941 L655.926484,365.203001 C655.926484,362.139543 653.392406,359.648801 650.27637,359.648801 L635.625773,359.648801 C625.152484,359.648801 619.664078,352.165044 616.445401,346.536852 C614.874795,343.786658 611.931119,342.076195 608.765699,342.076195 L586.718148,342.076195 C583.552728,342.076195 580.608084,343.785697 579.033605,346.535891 C575.815896,352.165044 570.328458,359.648801 559.856138,359.648801 L545.203604,359.648801 Z M545.203604,421.51087 C539.734564,421.51087 535.284191,417.151111 535.284191,411.792941 L535.284191,365.203001 C535.284191,361.770544 537.115274,358.657116 540.181926,356.873622 L540.660273,356.59399 L540.660273,347.487216 C540.660273,346.338899 541.617936,345.40391 542.795406,345.40391 L562.2043,345.40391 C563.381771,345.40391 564.339434,346.338899 564.339434,347.487216 L564.339434,354.880645 L565.695074,354.294475 C570.418512,352.250567 573.312803,347.990745 575.307531,344.506398 C577.633422,340.437802 582.005362,337.909583 586.718148,337.909583 L608.765699,337.909583 C613.478485,337.909583 617.850425,340.437802 620.176316,344.505437 C623.095784,349.615685 627.490963,355.482189 635.625773,355.482189 L650.27637,355.482189 C655.746378,355.482189 660.196751,359.842909 660.196751,365.203001 L660.196751,411.792941 C660.196751,417.151111 655.746378,421.51087 650.27637,421.51087 L545.203604,421.51087 Z" id="Shape" fill="#FFFFFF" fill-rule="nonzero"></path>
    <path d="M637.47719,373.278693 C636.539861,373.278693 635.70227,373.899457 635.440825,374.788321 C635.282989,375.325483 635.346898,375.890513 635.620931,376.380589 C635.896901,376.871627 636.349104,377.227172 636.897169,377.379961 C637.084054,377.431851 637.277717,377.458757 637.474285,377.458757 C638.416455,377.458757 639.255015,376.836072 639.514523,375.945286 C639.67139,375.419655 639.60264,374.834446 639.325702,374.348213 C639.058447,373.870629 638.593656,373.507395 638.053337,373.35749 C637.865484,373.304638 637.671821,373.278693 637.47719,373.278693 Z" id="Path"></path>
    <path d="M637.484936,380.190694 C637.02886,380.190694 636.569879,380.126311 636.12155,379.999468 C634.854994,379.645844 633.805342,378.82905 633.164317,377.700913 C632.53104,376.577581 632.379983,375.278397 632.740196,374.044558 C633.341519,371.986237 635.289768,370.54964 637.478158,370.54964 C637.935203,370.54964 638.391279,370.613061 638.835735,370.737022 C640.1081,371.096411 641.15969,371.920893 641.795872,373.061522 C642.420435,374.18005 642.567619,375.469623 642.209342,376.691932 C641.849129,377.930576 641.019284,378.954932 639.8728,379.578579 C639.124293,379.985054 638.32156,380.190694 637.484936,380.190694 Z" id="Path"></path>
    <path d="M617.741005,385.979362 C617.741005,381.710892 616.418288,377.632687 613.916164,374.184854 L613.247058,373.262357 L585.077824,401.545537 L585.978356,402.204738 C589.41684,404.720464 593.483761,406.050397 597.739503,406.050397 C608.768604,406.050397 617.741005,397.045482 617.741005,385.979362 Z" id="Path"></path>
    <path d="M609.337005,369.633869 C605.934348,367.195018 601.924558,365.906405 597.739503,365.906405 C586.71137,365.906405 577.738969,374.911321 577.738969,385.979362 C577.738969,390.174801 579.021017,394.195351 581.445676,397.606667 L582.112845,398.5455 L610.253998,370.290187 L609.337005,369.633869 Z" id="Path"></path>
    <path d="M597.74144,409.993111 C584.233453,409.993111 573.244053,399.220076 573.244053,385.978401 C573.244053,372.736726 584.233453,361.963691 597.74144,361.963691 C611.247489,361.963691 622.235921,372.736726 622.235921,385.978401 C622.235921,399.220076 611.247489,409.993111 597.74144,409.993111 Z" id="Path"></path>
    <polygon id="Path" points="544.93054 355.482189 560.069167 355.482189 560.069167 349.570521 544.93054 349.570521"></polygon>
    <path d="M545.203604,359.648801 C542.088537,359.648801 539.555426,362.139543 539.555426,365.203001 L539.555426,411.792941 C539.555426,414.854478 542.088537,417.344258 545.203604,417.344258 L650.27637,417.344258 C653.392406,417.344258 655.926484,414.854478 655.926484,411.792941 L655.926484,365.203001 C655.926484,362.139543 653.392406,359.648801 650.27637,359.648801 L635.625773,359.648801 C625.152484,359.648801 619.664078,352.165044 616.445401,346.536852 C614.874795,343.786658 611.931119,342.076195 608.765699,342.076195 L586.718148,342.076195 C583.552728,342.076195 580.608084,343.785697 579.033605,346.535891 C575.815896,352.165044 570.328458,359.648801 559.856138,359.648801 L545.203604,359.648801 Z" id="Path"></path>
    <path d="M545.203604,421.51087 C539.734564,421.51087 535.284191,417.151111 535.284191,411.792941 L535.284191,365.203001 C535.284191,361.770544 537.115274,358.657116 540.181926,356.873622 L540.660273,356.59399 L540.660273,347.487216 C540.660273,346.338899 541.617936,345.40391 542.795406,345.40391 L562.2043,345.40391 C563.381771,345.40391 564.339434,346.338899 564.339434,347.487216 L564.339434,354.880645 L565.695074,354.294475 C570.418512,352.250567 573.312803,347.990745 575.307531,344.506398 C577.633422,340.437802 582.005362,337.909583 586.718148,337.909583 L608.765699,337.909583 C613.478485,337.909583 617.850425,340.437802 620.176316,344.505437 C623.095784,349.615685 627.490963,355.482189 635.625773,355.482189 L650.27637,355.482189 C655.746378,355.482189 660.196751,359.842909 660.196751,365.203001 L660.196751,411.792941 C660.196751,417.151111 655.746378,421.51087 650.27637,421.51087 L545.203604,421.51087 Z" id="Path"></path>
    <path d="M574.259234,409.259341 C573.323842,408.330118 573.323842,406.825295 574.259234,405.896071 L617.833383,362.654027 C618.768774,361.724803 620.287091,361.724803 621.222483,362.654027 C622.157875,363.58325 622.157875,365.088073 621.222483,366.017297 L577.648334,409.259341 C576.712943,410.188565 575.194626,410.188565 574.259234,409.259341" id="Path" fill="#FFFFFF"></path>
  </g>
</svg>