<?xml version="1.0" encoding="UTF-8"?>
<svg id="Layer_1" xmlns="http://www.w3.org/2000/svg" version="1.1" viewBox="0 0 566.93 283.46">
  <!-- Generator: Adobe Illustrator 29.5.1, SVG Export Plug-In . SVG Version: 2.1.0 Build 141)  -->
  <defs>
    <style>
      .st0 {
        fill: #38b07d;
      }

      .st1 {
        fill: #fcfaf3;
      }

      .st2 {
        fill: #232f5d;
      }
    </style>
  </defs>
  <g>
    <g>
      <path class="st2" d="M195.5,169.25v-8.41h2.7c.67,0,1.22.11,1.66.34s.75.52.96.9c.21.38.31.8.31,1.29s-.1.9-.31,1.28c-.21.38-.53.68-.95.91-.43.22-.98.34-1.66.34h-1.69v3.36h-1.01ZM196.51,165.03h1.68c.7,0,1.19-.15,1.48-.46.29-.3.43-.71.43-1.21s-.14-.94-.43-1.24-.78-.44-1.48-.44h-1.68v3.35Z"/>
      <path class="st2" d="M204.42,169.25v-8.41h5.2v.83h-4.19v2.93h3.83v.82h-3.83v3h4.19v.83h-5.2Z"/>
      <path class="st2" d="M213.17,169.25v-8.41h1.01l4.48,6.75v-6.75h1.01v8.41h-1.01l-4.48-6.75v6.75h-1.01Z"/>
      <path class="st2" d="M225.39,169.25v-7.58h-2.51v-.83h6.03v.83h-2.51v7.58h-1.01Z"/>
      <path class="st2" d="M232.12,169.25v-8.41h2.72c.66,0,1.19.11,1.61.33.42.22.72.51.93.88.2.37.3.79.3,1.25s-.1.86-.31,1.24-.52.68-.94.9c-.42.22-.97.34-1.63.34h-1.66v3.47h-1.01ZM233.13,164.98h1.63c.64,0,1.11-.16,1.41-.47.3-.31.45-.71.45-1.2s-.15-.89-.44-1.18c-.29-.29-.77-.44-1.44-.44h-1.62v3.29ZM236.56,169.25l-1.85-3.76h1.13l1.91,3.76h-1.19Z"/>
      <path class="st2" d="M244.21,169.39c-.58,0-1.1-.12-1.57-.35s-.84-.59-1.12-1.06c-.28-.48-.42-1.09-.42-1.83v-5.31h1.01v5.32c0,.54.09.99.27,1.33s.43.6.75.76.69.24,1.11.24.79-.08,1.11-.24c.31-.16.56-.41.73-.76.18-.34.27-.79.27-1.33v-5.32h1.01v5.31c0,.74-.14,1.36-.42,1.83-.28.48-.66.83-1.13,1.06s-1,.35-1.59.35Z"/>
      <path class="st2" d="M259.73,169.39c-.78,0-1.46-.18-2.05-.55-.59-.36-1.05-.87-1.38-1.53-.33-.65-.5-1.41-.5-2.28s.17-1.61.5-2.26c.33-.65.79-1.16,1.38-1.53.59-.37,1.27-.55,2.05-.55s1.48.18,2.07.55,1.04.88,1.37,1.53.49,1.41.49,2.26-.16,1.62-.49,2.28-.78,1.16-1.37,1.53c-.59.36-1.28.55-2.07.55ZM259.73,168.5c.58,0,1.09-.14,1.53-.41.43-.28.77-.67,1.01-1.19.24-.52.36-1.14.36-1.86s-.12-1.34-.36-1.86c-.24-.52-.58-.91-1.01-1.18-.43-.27-.94-.41-1.53-.41s-1.08.14-1.51.41c-.43.27-.77.67-1.02,1.18-.24.52-.37,1.14-.37,1.86s.12,1.34.37,1.86c.24.52.58.91,1.02,1.19.43.28.94.41,1.51.41Z"/>
      <path class="st2" d="M265.94,169.25l3.1-8.41h1.07l3.09,8.41h-1.08l-2.55-7.15-2.57,7.15h-1.06ZM267.36,167.08l.29-.82h3.81l.29.82h-4.39Z"/>
      <path class="st2" d="M276.41,169.25v-8.41h1.18l2.87,5.91,2.87-5.91h1.19v8.41h-1.01v-6.6l-2.67,5.48h-.76l-2.67-5.44v6.56h-1.01Z"/>
      <path class="st2" d="M288.28,169.25v-8.41h5.2v.83h-4.19v2.93h3.83v.82h-3.83v3h4.19v.83h-5.2Z"/>
      <path class="st2" d="M297.02,169.25v-8.41h1.01l4.48,6.75v-6.75h1.01v8.41h-1.01l-4.48-6.75v6.75h-1.01Z"/>
      <path class="st2" d="M307.28,169.25v-8.41h1.01v8.41h-1.01Z"/>
      <path class="st2" d="M320.75,169.39c-.79,0-1.48-.18-2.07-.55-.59-.36-1.04-.87-1.35-1.53s-.47-1.41-.47-2.28.16-1.62.47-2.28c.32-.65.77-1.16,1.35-1.53.58-.36,1.27-.55,2.07-.55.96,0,1.74.23,2.33.68.59.46.97,1.1,1.14,1.93h-1.09c-.14-.52-.4-.94-.79-1.26-.39-.32-.92-.47-1.59-.47-.58,0-1.08.14-1.51.41-.43.28-.77.67-1,1.19-.23.52-.35,1.14-.35,1.86s.12,1.34.35,1.86c.23.52.56.91,1,1.19s.94.41,1.51.41c.67,0,1.2-.15,1.59-.46.39-.31.65-.72.79-1.23h1.09c-.17.81-.55,1.44-1.14,1.9-.59.46-1.37.69-2.33.69Z"/>
      <path class="st2" d="M326.9,169.25l3.1-8.41h1.07l3.09,8.41h-1.08l-2.55-7.15-2.57,7.15h-1.06ZM328.32,167.08l.29-.82h3.81l.29.82h-4.39Z"/>
      <path class="st2" d="M344.47,169.25v-7.58h-2.51v-.83h6.03v.83h-2.51v7.58h-1.01Z"/>
      <path class="st2" d="M351.2,169.25v-8.41h1.01v8.41h-1.01Z"/>
      <path class="st2" d="M355.97,169.25v-8.41h1.01l4.48,6.75v-6.75h1.01v8.41h-1.01l-4.48-6.75v6.75h-1.01Z"/>
      <path class="st2" d="M366.23,169.25v-8.41h5.2v.83h-4.19v2.93h3.83v.82h-3.83v3h4.19v.83h-5.2Z"/>
    </g>
    <g>
      <path class="st2" d="M168.33,114.66c12.42,0,19.55,6.02,19.55,16.98s-7.13,16.98-19.55,16.98h-16.54c-.51,0-.92-.41-.92-.92v-32.11c0-.51.41-.92.92-.92h16.54ZM160.57,119.46v24.35c0,.51.41.92.92.92h6.84c5.92,0,9.02-2.28,9.02-8.68v-9.02c0-6.21-3.1-8.49-9.02-8.49h-6.84c-.51,0-.92.41-.92.92Z"/>
      <path class="st2" d="M267.19,117.96c4.28,0,8.15,1.23,11.04,4.05.17.17.4.27.64.27h.05c.28,0,.55-.13.72-.35l1.66-2.08c.31-.4.25-.96-.13-1.29-3.44-2.94-8.75-4.48-13.98-4.48-11.4,0-20.96,6.26-20.96,17.51s9.56,17.61,20.96,17.61c5.25,0,10.15-1.54,13.94-4.51.4-.31.45-.9.13-1.3l-1.42-1.76c-.18-.22-.44-.34-.72-.34h-.08c-.22,0-.44.09-.61.23-3,2.65-7.23,3.79-11.24,3.79-5.97,0-10.29-2.62-10.29-9.12v-9.12c0-6.5,4.32-9.12,10.29-9.12Z"/>
      <path class="st2" d="M310.33,115.16c-.16-.31-.48-.5-.82-.5h-4.7c-.35,0-.66.19-.82.5l-16.61,32.11c-.32.61.13,1.35.82,1.35h2.48c.35,0,.66-.19.82-.5l2.64-5.11c.16-.31.48-.5.82-.5h18.09c.35,0,.66.19.82.5l2.64,5.11c.16.31.48.5.82.5h8.79c.69,0,1.14-.73.82-1.35l-16.61-32.11ZM310.11,138.62h-12.2c-.69,0-1.14-.73-.82-1.35l6.1-11.81c.34-.67,1.3-.67,1.64,0l6.1,11.81c.32.62-.13,1.35-.82,1.35Z"/>
      <path class="st2" d="M365.11,134.57c-.32-.51-.07-1.19.5-1.37,4.86-1.54,7.04-4.63,7.04-9.23,0-6.74-4.85-9.31-16.25-9.31h-19.16c-.51,0-.92.41-.92.92v32.11c0,.51.41.92.92.92h7.85c.51,0,.92-.41.92-.92v-12.42c0-.51.41-.92.92-.92h6.48c.34,0,.65.18.81.48l7.28,13.3c.16.3.47.48.81.48h9.96c.73,0,1.17-.8.78-1.42l-7.96-12.63ZM362.07,125.48c0,3.4-2.18,5-5.68,5h-9.46c-.51,0-.92-.41-.92-.92v-10.09c0-.51.41-.92.92-.92h9.46c3.49,0,5.68,1.41,5.68,4.8v2.13Z"/>
      <path class="st2" d="M391.03,121.69c0-2.23,2.18-3.74,8.25-3.74,4.7,0,8.8,1.18,11.35,3.19.16.13.36.2.57.2.34,0,.65-.19.81-.49l1.37-2.54c.24-.45.07-.99-.36-1.25-3.58-2.08-8.72-3.01-13.73-3.01-11.3,0-17.17,4.37-17.22,10.48-.05,12.52,24.16,8.25,24.16,16.2,0,3.01-3.1,4.61-8.83,4.61-6.04,0-10.84-1.97-13.77-4.31-.16-.13-.36-.2-.57-.2h-.09c-.32,0-.61.16-.78.43l-1.62,2.54c-.28.44-.14,1.01.3,1.29,4.07,2.56,9.94,4.14,16.53,4.14,10.43,0,18.68-3.35,18.68-11.21,0-13.2-25.03-9.7-25.03-16.35Z"/>
      <g>
        <path class="st0" d="M214.32,114.07h-2.22c-.1,0-.19.05-.25.13l-22.81,32.73c-.49.71.01,1.68.88,1.68h13.14c.47,0,.88-.3,1.02-.75l10.54-33.4c.06-.2-.08-.4-.29-.4Z"/>
        <path class="st0" d="M245.07,146.94l-22.81-32.73c-.06-.08-.15-.13-.25-.13h-2.22c-.21,0-.35.2-.29.4l10.54,33.4c.14.44.55.75,1.02.75h13.14c.86,0,1.37-.97.88-1.68Z"/>
      </g>
    </g>
  </g>
</svg>
